<svg width="134" height="37" viewBox="0 0 134 37" fill="none" xmlns="http://www.w3.org/2000/svg">
<path d="M22.12 21.52H6.52L3.16 29H0.08L12.88 0.999998H15.8L28.6 29H25.48L22.12 21.52ZM21.04 19.12L14.32 4.08L7.6 19.12H21.04ZM43.4719 7.8C45.4452 7.8 47.2319 8.25333 48.8319 9.16C50.4319 10.04 51.6852 11.2933 52.5919 12.92C53.4985 14.5467 53.9519 16.4 53.9519 18.48C53.9519 20.5867 53.4985 22.4533 52.5919 24.08C51.6852 25.7067 50.4319 26.9733 48.8319 27.88C47.2585 28.76 45.4719 29.2 43.4719 29.2C41.7652 29.2 40.2185 28.8533 38.8319 28.16C37.4719 27.44 36.3519 26.4 35.4719 25.04V36.76H32.6319V7.96H35.3519V12.12C36.2052 10.7333 37.3252 9.66667 38.7119 8.92C40.1252 8.17333 41.7119 7.8 43.4719 7.8ZM43.2719 26.68C44.7385 26.68 46.0719 26.3467 47.2719 25.68C48.4719 24.9867 49.4052 24.0133 50.0719 22.76C50.7652 21.5067 51.1119 20.08 51.1119 18.48C51.1119 16.88 50.7652 15.4667 50.0719 14.24C49.4052 12.9867 48.4719 12.0133 47.2719 11.32C46.0719 10.6267 44.7385 10.28 43.2719 10.28C41.7785 10.28 40.4319 10.6267 39.2319 11.32C38.0585 12.0133 37.1252 12.9867 36.4319 14.24C35.7652 15.4667 35.4319 16.88 35.4319 18.48C35.4319 20.08 35.7652 21.5067 36.4319 22.76C37.1252 24.0133 38.0585 24.9867 39.2319 25.68C40.4319 26.3467 41.7785 26.68 43.2719 26.68ZM70.5813 7.8C72.5546 7.8 74.3413 8.25333 75.9413 9.16C77.5413 10.04 78.7946 11.2933 79.7013 12.92C80.6079 14.5467 81.0613 16.4 81.0613 18.48C81.0613 20.5867 80.6079 22.4533 79.7013 24.08C78.7946 25.7067 77.5413 26.9733 75.9413 27.88C74.3679 28.76 72.5813 29.2 70.5813 29.2C68.8746 29.2 67.3279 28.8533 65.9413 28.16C64.5813 27.44 63.4613 26.4 62.5813 25.04V36.76H59.7413V7.96H62.4613V12.12C63.3146 10.7333 64.4346 9.66667 65.8213 8.92C67.2346 8.17333 68.8213 7.8 70.5813 7.8ZM70.3813 26.68C71.8479 26.68 73.1813 26.3467 74.3813 25.68C75.5813 24.9867 76.5146 24.0133 77.1813 22.76C77.8746 21.5067 78.2213 20.08 78.2213 18.48C78.2213 16.88 77.8746 15.4667 77.1813 14.24C76.5146 12.9867 75.5813 12.0133 74.3813 11.32C73.1813 10.6267 71.8479 10.28 70.3813 10.28C68.8879 10.28 67.5413 10.6267 66.3412 11.32C65.1679 12.0133 64.2346 12.9867 63.5413 14.24C62.8746 15.4667 62.5413 16.88 62.5413 18.48C62.5413 20.08 62.8746 21.5067 63.5413 22.76C64.2346 24.0133 65.1679 24.9867 66.3412 25.68C67.5413 26.3467 68.8879 26.68 70.3813 26.68ZM99.6106 29.24C96.8373 29.24 94.3306 28.6267 92.0906 27.4C89.8773 26.1733 88.1306 24.48 86.8506 22.32C85.5973 20.1333 84.9706 17.6933 84.9706 15C84.9706 12.3067 85.5973 9.88 86.8506 7.72C88.1306 5.53333 89.8906 3.82667 92.1306 2.6C94.3706 1.37333 96.8773 0.759999 99.6506 0.759999C101.731 0.759999 103.651 1.10667 105.411 1.8C107.171 2.49333 108.664 3.50667 109.891 4.84L108.011 6.72C105.824 4.50666 103.064 3.4 99.7306 3.4C97.5173 3.4 95.504 3.90666 93.6906 4.92C91.8773 5.93333 90.4506 7.32 89.4106 9.08C88.3973 10.84 87.8906 12.8133 87.8906 15C87.8906 17.1867 88.3973 19.16 89.4106 20.92C90.4506 22.68 91.8773 24.0667 93.6906 25.08C95.504 26.0933 97.5173 26.6 99.7306 26.6C103.091 26.6 105.851 25.48 108.011 23.24L109.891 25.12C108.664 26.4533 107.157 27.48 105.371 28.2C103.611 28.8933 101.691 29.24 99.6106 29.24ZM123.263 29.2C121.236 29.2 119.41 28.7467 117.783 27.84C116.156 26.9067 114.876 25.6267 113.943 24C113.01 22.3733 112.543 20.5333 112.543 18.48C112.543 16.4267 113.01 14.5867 113.943 12.96C114.876 11.3333 116.156 10.0667 117.783 9.16C119.41 8.25333 121.236 7.8 123.263 7.8C125.29 7.8 127.116 8.25333 128.743 9.16C130.37 10.0667 131.636 11.3333 132.543 12.96C133.476 14.5867 133.943 16.4267 133.943 18.48C133.943 20.5333 133.476 22.3733 132.543 24C131.636 25.6267 130.37 26.9067 128.743 27.84C127.116 28.7467 125.29 29.2 123.263 29.2ZM123.263 26.68C124.756 26.68 126.09 26.3467 127.263 25.68C128.463 24.9867 129.396 24.0133 130.063 22.76C130.73 21.5067 131.063 20.08 131.063 18.48C131.063 16.88 130.73 15.4533 130.063 14.2C129.396 12.9467 128.463 11.9867 127.263 11.32C126.09 10.6267 124.756 10.28 123.263 10.28C121.77 10.28 120.423 10.6267 119.223 11.32C118.05 11.9867 117.116 12.9467 116.423 14.2C115.756 15.4533 115.423 16.88 115.423 18.48C115.423 20.08 115.756 21.5067 116.423 22.76C117.116 24.0133 118.05 24.9867 119.223 25.68C120.423 26.3467 121.77 26.68 123.263 26.68Z" fill="white"/>
</svg>
